<?xml version="1.0"?>
<svg xmlns="http://www.w3.org/2000/svg" width="218" height="24" viewBox="0 0 218 24" fill="none">
  <path d="M195.956 0.39638C195.721 0.144625 195.394 0 195.046 0H159.559C159.216 0 158.884 0.144625 158.648 0.39638L152.89 6.56169C152.676 6.79202 152.558 7.09734 152.558 7.40802V16.2087C152.558 16.5248 152.676 16.8247 152.89 17.055L158.648 23.2204C158.884 23.4721 159.211 23.6167 159.559 23.6167H195.046C195.388 23.6167 195.721 23.4721 195.956 23.2204L201.714 17.055C201.929 16.8247 202.047 16.5194 202.047 16.2087V14.6821C202.047 13.9965 201.489 13.4394 200.804 13.4394H163.983C163.641 13.4394 163.308 13.2948 163.073 13.043C162.859 12.8127 162.741 12.5074 162.741 12.1967V11.42C162.741 11.104 162.859 10.804 163.073 10.5737C163.308 10.3219 163.635 10.1773 163.983 10.1773H200.804C201.489 10.1773 202.047 9.62024 202.047 8.93461V7.40802C202.047 7.09198 201.929 6.79202 201.714 6.56169L195.956 0.39638Z" fill="#16E3C1"></path>
  <path d="M52.6167 13.4876H49.4886V7.45622C49.4886 7.14019 49.3707 6.84023 49.1564 6.6099L43.3982 0.439232C43.1625 0.187477 42.8358 0.0428519 42.4876 0.0428519H7.00092C6.65811 0.0428519 6.32601 0.187477 6.09032 0.439232L0.332102 6.60454C0.117843 6.83487 0 7.14019 0 7.45087V16.2569C0 16.573 0.117843 16.8729 0.332102 17.1033L6.09032 23.2686C6.32601 23.5203 6.65275 23.6649 7.00092 23.6649H61.0639C61.4067 23.6596 61.7388 23.515 61.9745 23.2632C61.9745 23.2632 53.3077 13.4823 52.6221 13.4823L52.6167 13.4876ZM39.3112 12.2396C39.3112 12.9252 38.7542 13.4823 38.0685 13.4823H11.42C11.0772 13.4823 10.7451 13.3376 10.5094 13.0859C10.2952 12.8556 10.1773 12.5502 10.1773 12.2396V11.4682C10.1773 11.1522 10.2952 10.8522 10.5148 10.6219C10.7505 10.3702 11.0772 10.2255 11.4254 10.2255H38.0471C38.3792 10.2255 38.6952 10.3541 38.9256 10.5898L38.9523 10.6166C39.188 10.8522 39.3166 11.1683 39.3166 11.495V12.2396H39.3112Z" fill="#16E3C1"></path>
  <path d="M101.8 6.0689L96.5024 0.39638C96.2667 0.144625 95.94 0 95.5918 0H80.7222C80.0366 0 79.4795 0.557074 79.4795 1.2427V12.1967C79.4795 12.5395 79.3349 12.8716 79.0831 13.1073C78.8528 13.3216 78.5475 13.4448 78.2368 13.4448H77.4601C77.1441 13.4448 76.8388 13.3269 76.6138 13.1073C76.362 12.8716 76.2174 12.5449 76.2174 12.1967V1.2427C76.2174 0.557074 75.6603 0 74.9747 0H60.1051C59.7623 0 59.4302 0.144625 59.1945 0.39638L53.8969 6.0689C53.4524 6.54562 53.4524 7.29017 53.8969 7.7669L68.3219 23.2257C68.5576 23.4775 68.8844 23.6221 69.2326 23.6221H86.4644C86.8072 23.6221 87.1393 23.4775 87.375 23.2257L101.8 7.7669C102.245 7.29017 102.245 6.54562 101.8 6.0689Z" fill="#16E3C1"></path>
  <path d="M134.212 0.39638C133.976 0.144625 133.65 0 133.301 0H116.07C115.727 0 115.395 0.144625 115.159 0.39638L100.734 15.8552C100.289 16.3319 100.289 17.0765 100.734 17.5532L106.032 23.2257C106.267 23.4775 106.594 23.6221 106.942 23.6221H121.812C122.497 23.6221 123.054 23.065 123.054 22.3794V11.4254C123.054 11.0826 123.199 10.7505 123.451 10.5148C123.681 10.3005 123.987 10.1773 124.297 10.1773H125.074C125.39 10.1773 125.695 10.2952 125.92 10.5148C126.172 10.7505 126.317 11.0772 126.317 11.4254V22.3794C126.317 23.065 126.874 23.6221 127.559 23.6221H142.429C142.772 23.6221 143.104 23.4775 143.34 23.2257L148.637 17.5532C149.082 17.0765 149.082 16.3319 148.637 15.8552L134.212 0.39638Z" fill="#16E3C1"></path>
  <path d="M217.704 17.2532L215.604 13.6483C215.518 13.5037 215.357 13.4126 215.186 13.4126H207.837C207.666 13.4126 207.505 13.5037 207.419 13.6483L205.319 17.2532C205.271 17.3389 205.255 17.4354 205.266 17.5264C205.266 17.5264 205.277 17.5639 205.277 17.58C205.293 17.671 205.325 17.7621 205.4 17.8317L211.169 23.4614C211.265 23.5525 211.388 23.6007 211.511 23.5953C211.635 23.5953 211.758 23.5525 211.854 23.4614L217.623 17.8317C217.693 17.7621 217.725 17.6764 217.741 17.5853C217.741 17.5639 217.752 17.5478 217.752 17.5264C217.757 17.4354 217.752 17.3389 217.698 17.2532H217.704Z" fill="#16E3C1"></path>
</svg>