<svg width="16" height="17" viewBox="0 0 16 17" fill="none" xmlns="http://www.w3.org/2000/svg">
<g filter="url(#filter0_d_32_6542)">
<path d="M8 1.33331C4.32 1.33331 1.33334 4.31998 1.33334 7.99998C1.33334 11.68 4.32 14.6666 8 14.6666C11.68 14.6666 14.6667 11.68 14.6667 7.99998C14.6667 4.31998 11.68 1.33331 8 1.33331ZM8 11.3333C7.63334 11.3333 7.33334 11.0333 7.33334 10.6666V7.99998C7.33334 7.63331 7.63334 7.33331 8 7.33331C8.36667 7.33331 8.66667 7.63331 8.66667 7.99998V10.6666C8.66667 11.0333 8.36667 11.3333 8 11.3333ZM8.66667 5.99998H7.33334V4.66665H8.66667V5.99998Z" fill="white"/>
</g>
<defs>
<filter id="filter0_d_32_6542" x="0" y="0" width="16" height="17.44" filterUnits="userSpaceOnUse" color-interpolation-filters="sRGB">
<feFlood flood-opacity="0" result="BackgroundImageFix"/>
<feColorMatrix in="SourceAlpha" type="matrix" values="0 0 0 0 0 0 0 0 0 0 0 0 0 0 0 0 0 0 127 0" result="hardAlpha"/>
<feOffset dy="1.44"/>
<feComposite in2="hardAlpha" operator="out"/>
<feColorMatrix type="matrix" values="0 0 0 0 0 0 0 0 0 0 0 0 0 0 0 0 0 0 0.15 0"/>
<feBlend mode="normal" in2="BackgroundImageFix" result="effect1_dropShadow_32_6542"/>
<feBlend mode="normal" in="SourceGraphic" in2="effect1_dropShadow_32_6542" result="shape"/>
</filter>
</defs>
</svg>
